<svg width="15" height="14" viewBox="0 0 15 14" fill="none" xmlns="http://www.w3.org/2000/svg">
<path d="M3.03896 5.56779H12.8971M3.4679 0.982422V3.34067M6.23823 0.982422V3.34067M9.69973 0.982422V3.34067M12.4701 0.982422V3.34067M1.93195 2.34043H14.006C14.1481 2.34043 14.2843 2.39687 14.3848 2.49733C14.4853 2.5978 14.5417 2.73406 14.5417 2.87613V11.5074C14.5417 11.7985 14.4261 12.0777 14.2202 12.2836C14.0144 12.4894 13.7352 12.6051 13.4441 12.6051H2.49388C2.20277 12.6051 1.92358 12.4894 1.71773 12.2836C1.51188 12.0777 1.39624 11.7985 1.39624 11.5074V2.87613C1.39624 2.73406 1.45268 2.5978 1.55315 2.49733C1.65361 2.39687 1.78987 2.34043 1.93195 2.34043Z" stroke="#093030" stroke-width="0.936554" stroke-linecap="round" stroke-linejoin="round"/>
</svg>
