<svg width="61" height="37" viewBox="0 0 61 37" fill="none" xmlns="http://www.w3.org/2000/svg">
<path d="M50.1161 12.9475L47.5683 9.48793C43.7423 4.37605 40.0744 2 30.8118 2H30.1043C20.8603 2 17.1925 4.37605 13.3478 9.48793L11.0453 12.7797M11.0951 30.3141V32.5671C11.0951 32.8866 11.033 33.203 10.9128 33.4982C10.7926 33.7933 10.6163 34.0615 10.3942 34.2874C10.172 34.5133 9.90828 34.6926 9.61802 34.8148C9.32775 34.9371 9.01673 35 8.70255 35H6.1239C5.80971 35 5.4987 34.9371 5.20843 34.8148C4.91817 34.6926 4.65422 34.5133 4.43206 34.2874C4.2099 34.0615 4.03388 33.7933 3.91365 33.4982C3.79342 33.203 3.73138 32.8866 3.73138 32.5671V25.8743M49.6163 30.3141V32.5671C49.6163 33.2107 49.8671 33.8281 50.3138 34.2841C50.7605 34.74 51.3666 34.9975 51.9995 35H54.5316C55.1645 34.9975 55.7706 34.74 56.2173 34.2841C56.6639 33.8281 56.9148 33.2107 56.9148 32.5671V25.8743M12.268 17.1274C12.268 17.1274 10.5178 21.9363 15.9264 22.7409M48.6295 17.1274C48.6295 17.1274 50.389 21.9363 44.971 22.7409M24.7515 22.7409H35.4198M25.7104 26.9819H34.461M11.5885 11.7315C11.5885 13.9372 2 13.9372 2 11.7315C2 9.52579 4.14102 7.71771 6.79413 7.71771C9.44724 7.71771 11.5885 9.48793 11.5885 11.7315ZM49.4115 11.7315C49.4115 13.9372 59 13.9372 59 11.7315C59 9.52579 56.8588 7.71771 54.2056 7.71771C51.5525 7.71771 49.4115 9.48793 49.4115 11.7315ZM53.4238 15.2341C51.806 13.4722 49.5733 12.4254 47.2051 12.3184H13.4967C11.129 12.4274 8.8972 13.4738 7.27822 15.2341C4.65303 17.9793 3.84312 21.7943 3.76865 25.5051C3.71531 26.4063 3.89171 27.3063 4.2807 28.1179C4.82994 29.1592 18.2444 32.0275 30.3464 32.0275C42.4483 32.0275 55.9279 29.0361 56.412 28.1179C56.7982 27.3056 56.9714 26.4055 56.9147 25.5051C56.8589 21.7943 56.049 18.0077 53.4238 15.2341Z" stroke="#052224" stroke-width="3" stroke-linecap="round" stroke-linejoin="round"/>
</svg>
