<svg width="54" height="49" viewBox="0 0 54 49" fill="none" xmlns="http://www.w3.org/2000/svg">
<path d="M2.00003 33.9062L26.615 46.2317L51.23 33.9062M2 24.3209L25.8203 36.24C26.0609 36.3585 26.3257 36.4202 26.5941 36.4202C26.8625 36.4202 27.1273 36.3585 27.3679 36.24L51.2091 24.3M3.36988 15.6837L26.1549 27.1444C26.2981 27.2143 26.4555 27.2507 26.615 27.2507C26.7745 27.2507 26.9318 27.2143 27.0751 27.1444L49.8706 15.6837C49.9981 15.6192 50.1052 15.5209 50.18 15.3995C50.2549 15.2781 50.2945 15.1385 50.2945 14.996C50.2945 14.8536 50.2549 14.7139 50.18 14.5925C50.1052 14.4711 49.9981 14.3728 49.8706 14.3084L27.0751 2.89973C26.9318 2.82981 26.7745 2.79346 26.615 2.79346C26.4555 2.79346 26.2981 2.82981 26.1549 2.89973L3.36988 14.3605C3.25509 14.4289 3.16003 14.5258 3.09404 14.6418C3.02806 14.7577 2.99333 14.8888 2.99333 15.0221C2.99333 15.1554 3.02806 15.2864 3.09404 15.4023C3.16003 15.5183 3.25509 15.6152 3.36988 15.6837Z" stroke="#093030" stroke-width="3.86118" stroke-linecap="round" stroke-linejoin="round"/>
</svg>
