<svg width="38" height="28" viewBox="0 0 38 28" fill="none" xmlns="http://www.w3.org/2000/svg">
<path d="M28.4699 6.29165L28.4699 7.97272M28.4699 11.9282L28.4699 16.0047M28.4699 20.3336L28.4699 21.7774M34.5571 26L3.4424 26C3.05985 26 2.69298 25.8248 2.42247 25.5133C2.15197 25.2017 2 24.7791 2 24.3385L2 17.7626C2.86074 17.7626 3.68621 17.3687 4.29484 16.6677C4.90347 15.9667 5.24544 15.016 5.24544 14.0246C5.24657 13.5329 5.16346 13.0457 5.00087 12.591C4.83828 12.1364 4.59936 11.7234 4.29788 11.3752C3.9964 11.0271 3.63826 10.7508 3.24395 10.5624C2.84963 10.3739 2.42692 10.2768 2 10.2768L2 3.66124C2 3.22063 2.15197 2.79802 2.42247 2.48647C2.69298 2.17491 3.05985 2 3.4424 2L34.5571 2C34.9397 2 35.3066 2.17491 35.5771 2.48647C35.8476 2.79803 35.9996 3.22063 35.9996 3.66124L35.9996 10.2372C35.5727 10.2372 35.1499 10.3343 34.7556 10.5228C34.3613 10.7112 34.0031 10.9875 33.7017 11.3356C33.4002 11.6838 33.1613 12.097 32.9987 12.5517C32.8361 13.0063 32.753 13.4933 32.7542 13.985C32.7542 14.9764 33.0961 15.9271 33.7047 16.6281C34.3133 17.3291 35.1389 17.723 35.9996 17.723L35.9996 24.2992C36.0042 24.5206 35.9702 24.7408 35.8998 24.9469C35.8293 25.1531 35.7238 25.341 35.5894 25.4995C35.455 25.658 35.2944 25.7839 35.1172 25.8699C34.9399 25.9558 34.7495 26.0001 34.5571 26Z" stroke="#052224" stroke-width="3" stroke-linecap="round" stroke-linejoin="round"/>
</svg>
