<svg width="32" height="53" viewBox="0 0 32 53" fill="none" xmlns="http://www.w3.org/2000/svg">
<path d="M3.76001 3.71997L2 19.72C2.00526 20.9945 2.38794 22.2389 3.09985 23.2961C3.81176 24.3533 4.82098 25.1759 6 25.66L4.77979 47.38C4.75555 48.3262 5.10705 49.2435 5.75732 49.9312C6.4076 50.619 7.30394 51.0212 8.25 51.05C9.19606 51.0212 10.0922 50.619 10.7424 49.9312C11.3927 49.2435 11.7442 48.3262 11.72 47.38L10.8899 25.66C12.0697 25.177 13.0797 24.3547 13.7917 23.2972C14.5038 22.2398 14.886 20.9948 14.8899 19.72L13.46 3.71997M8.42989 4.25999V20.78M28.8898 25.36C28.3129 25.4372 27.7863 25.7294 27.4155 26.178C27.0447 26.6267 26.857 27.1988 26.8898 27.78L27.9899 47.39C28.0142 48.3362 27.6627 49.2535 27.0124 49.9412C26.3621 50.629 25.4658 51.0312 24.5197 51.06C23.5737 51.0312 22.6776 50.629 22.0273 49.9412C21.377 49.2535 21.0255 48.3362 21.0498 47.39L21.8198 26.86C21.8345 26.4812 21.7742 26.1032 21.642 25.7479C21.5099 25.3926 21.3085 25.0671 21.0498 24.79V2C21.0498 2 32.4998 2.47999 28.8598 25.36H28.8898Z" stroke="#052224" stroke-width="3" stroke-linecap="round" stroke-linejoin="round"/>
</svg>
