<svg width="43" height="45" viewBox="0 0 43 45" fill="none" xmlns="http://www.w3.org/2000/svg">
<path d="M37.3199 24.5127V40.1827C37.3199 40.9041 37.0334 41.5959 36.5233 42.106C36.0132 42.6161 35.3213 42.9027 34.6 42.9027H8.18004C7.45865 42.9027 6.7668 42.6161 6.2567 42.106C5.7466 41.5959 5.46007 40.9041 5.46007 40.1827V24.5127M21.39 14.5727C21.39 14.5727 31.3001 14.0027 33.7601 12.0827C34.9345 11.1632 35.6975 9.81658 35.8829 8.33666C36.0684 6.85674 35.6612 5.36353 34.7501 4.18267C33.83 3.00325 32.4803 2.23602 30.9962 2.04863C29.5121 1.86125 28.0143 2.26896 26.8299 3.18267C24.3899 5.10267 21.39 14.5727 21.39 14.5727ZM21.39 14.5727C21.39 14.5727 11.4798 14.0027 9.01984 12.0827C7.84478 11.1633 7.08193 9.81571 6.89826 8.33505C6.71458 6.8544 7.12506 5.3613 8.03986 4.18265C8.95834 3.00097 10.3082 2.23201 11.793 2.04453C13.2779 1.85704 14.7766 2.26636 15.96 3.18265C18.39 5.10265 21.39 14.5727 21.39 14.5727ZM21.39 14.5727V42.9027M4.52 14.5727H38.27C39.6618 14.5727 40.79 15.7009 40.79 17.0927V20.8327C40.79 22.2244 39.6618 23.3527 38.27 23.3527H4.52C3.12824 23.3527 2 22.2244 2 20.8327V17.0927C2 15.7009 3.12824 14.5727 4.52 14.5727Z" stroke="#052224" stroke-width="3" stroke-linecap="round" stroke-linejoin="round"/>
</svg>
