<svg width="34" height="52" viewBox="0 0 34 52" fill="none" xmlns="http://www.w3.org/2000/svg">
<path d="M2.75992 21.5492C2.59992 20.6892 2.45977 19.7992 2.34977 18.8892C1.25977 9.99919 3.19984 2.44913 6.67984 2.01913C10.1598 1.58913 13.8799 8.45915 14.9699 17.3492C15.0899 18.3492 15.1799 19.3992 15.2299 20.3492M3.3599 6.88913L7.7099 8.52913M2.0499 12.6691L7.3999 14.9891M6.6599 44.6091H27.0299M17.0798 21.9091C16.366 21.2294 15.7977 20.4119 15.4092 19.506C15.0207 18.6002 14.8201 17.6248 14.8198 16.6392C14.8198 14.7128 15.5846 12.8651 16.9458 11.502C18.307 10.1389 20.1534 9.37179 22.0798 9.36914C24.008 9.36914 25.8571 10.1351 27.2205 11.4985C28.5838 12.8619 29.3499 14.711 29.3499 16.6392C29.3514 17.4526 29.2162 18.2605 28.95 19.0291M22.0797 11.7791C22.0797 11.7791 21.8597 7.2191 25.2997 5.0191M2.48999 21.9091L4.48999 19.2592C4.63471 19.0704 4.82089 18.9175 5.03418 18.8123C5.24747 18.707 5.48214 18.6523 5.71997 18.6523C5.95781 18.6523 6.19247 18.707 6.40576 18.8123C6.61905 18.9175 6.80523 19.0704 6.94995 19.2592L8.7998 21.6791C8.87157 21.7744 8.96456 21.8517 9.07129 21.9049C9.17801 21.9581 9.29554 21.9858 9.41479 21.9858C9.53405 21.9858 9.65182 21.9581 9.75854 21.9049C9.86527 21.8517 9.95802 21.7744 10.0298 21.6791L11.8799 19.2592C12.0246 19.0704 12.2108 18.9175 12.4241 18.8123C12.6374 18.707 12.872 18.6523 13.1099 18.6523C13.3477 18.6523 13.5824 18.707 13.7957 18.8123C14.0089 18.9175 14.1951 19.0704 14.3398 19.2592C14.3398 19.2592 15.3399 20.5891 16.0999 21.5991C16.182 21.7069 16.288 21.7943 16.4094 21.8544C16.5308 21.9146 16.6643 21.9459 16.7998 21.9459C16.9353 21.9459 17.069 21.9146 17.1904 21.8544C17.3118 21.7943 17.4179 21.7069 17.5 21.5991L19.2998 19.2791C19.4435 19.0905 19.6288 18.9376 19.8413 18.8324C20.0538 18.7272 20.2878 18.6724 20.5249 18.6724C20.762 18.6724 20.996 18.7272 21.2085 18.8324C21.421 18.9376 21.6063 19.0905 21.75 19.2791L23.5999 21.6992C23.6726 21.7945 23.7665 21.8718 23.874 21.925C23.9816 21.9782 24.1 22.0059 24.22 22.0059C24.3399 22.0059 24.4581 21.9782 24.5657 21.925C24.6732 21.8718 24.767 21.7945 24.8398 21.6992L26.6899 19.2791C26.8336 19.0905 27.019 18.9376 27.2314 18.8324C27.4439 18.7272 27.6777 18.6724 27.9148 18.6724C28.1519 18.6724 28.3859 18.7272 28.5984 18.8324C28.8109 18.9376 28.9962 19.0905 29.1399 19.2791L31.1399 21.9291C31.4222 22.3079 31.5763 22.7668 31.5798 23.2391V47.9091C31.5798 48.2414 31.5144 48.5704 31.3872 48.8773C31.2601 49.1843 31.0738 49.4632 30.8389 49.6981C30.6039 49.9331 30.325 50.1194 30.0181 50.2465C29.7111 50.3737 29.382 50.4391 29.0498 50.4391H4.52002C3.85076 50.4365 3.20961 50.1688 2.7373 49.6946C2.265 49.2204 1.99999 48.5784 2 47.9091V23.2191C2.01277 22.74 2.18522 22.279 2.48999 21.9091Z" stroke="#052224" stroke-width="3" stroke-linecap="round" stroke-linejoin="round"/>
</svg>
