<svg width="50" height="60" viewBox="0 0 50 60" fill="none" xmlns="http://www.w3.org/2000/svg">
<path d="M45.1969 57.6756H4.23951C3.64556 57.6756 3.07593 57.4396 2.65594 57.0196C2.23596 56.5997 2.00002 56.03 2.00002 55.4361V23.0698C1.99872 22.7608 2.06252 22.4549 2.18726 22.1722C2.31199 21.8894 2.49487 21.6361 2.72399 21.4288L23.1979 2.59588C23.6101 2.21392 24.1514 2.00171 24.7134 2.00171C25.2754 2.00171 25.8167 2.21392 26.2289 2.59588L46.7125 21.4288C46.9397 21.6376 47.1213 21.8912 47.2459 22.1736C47.3705 22.456 47.4354 22.7611 47.4364 23.0698V55.4361C47.4364 56.03 47.2005 56.5997 46.7805 57.0196C46.3605 57.4396 45.7909 57.6756 45.1969 57.6756ZM19.4525 41.8351H29.9936C30.2116 41.8364 30.4272 41.8806 30.6282 41.9652C30.8291 42.0498 31.0115 42.1731 31.1647 42.3282C31.318 42.4833 31.4393 42.667 31.5215 42.8689C31.6038 43.0709 31.6455 43.287 31.6442 43.5051V57.6756H17.7922V43.5051C17.791 43.2862 17.833 43.0693 17.9158 42.8667C17.9987 42.6642 18.1208 42.48 18.2751 42.3248C18.4294 42.1696 18.6129 42.0464 18.8149 41.9624C19.017 41.8784 19.2337 41.8351 19.4525 41.8351Z" stroke="#093030" stroke-width="3.86118" stroke-linecap="round" stroke-linejoin="round"/>
</svg>
