<svg width="35" height="45" viewBox="0 0 35 45" fill="none" xmlns="http://www.w3.org/2000/svg">
<path d="M7.32733 19.2621L22.5573 25.2121M24.8273 21.6421C27.0891 22.0471 29.1515 23.194 30.6889 24.9016C32.2263 26.6093 33.1511 28.7803 33.3173 31.0721C33.4747 33.3952 32.8451 35.7036 31.5297 37.6249C30.2144 39.5462 28.29 40.9684 26.0673 41.6621C24.634 42.1089 23.12 42.2357 21.6323 42.0335C20.1446 41.8314 18.7193 41.3052 17.4572 40.4921M31.8473 27.0321L18.2173 36.3021M22.6692 2.56393C26.8737 4.20912 28.9476 8.95339 27.3014 13.1605L17.7909 37.466C16.1447 41.6731 11.4017 43.7499 7.19719 42.1047C2.99268 40.4595 0.91871 35.7153 2.56491 31.5082L12.0755 7.20268C13.7217 2.99559 18.4647 0.918736 22.6692 2.56393Z" stroke="#052224" stroke-width="3" stroke-linecap="round" stroke-linejoin="round"/>
</svg>
