<svg width="43" height="54" viewBox="0 0 43 54" fill="none" xmlns="http://www.w3.org/2000/svg">
<path d="M3.36439 36.0662C2.40925 38.4855 1.947 41.0712 2.00483 43.6715C2.00483 54.4538 41.0316 54.4538 41.0509 43.6715C41.1088 41.0712 40.6466 38.4855 39.6915 36.0662C38.7363 33.647 37.3074 31.4429 35.4888 29.5834C33.6702 27.7239 31.4985 26.2464 29.1011 25.2377C26.7036 24.229 24.1289 23.7094 21.5279 23.7094C18.9269 23.7094 16.3521 24.229 13.9547 25.2377C11.5573 26.2464 9.38554 27.7239 7.56693 29.5834C5.74832 31.4429 4.31954 33.647 3.36439 36.0662Z" stroke="#093030" stroke-width="3.86118" stroke-linecap="round" stroke-linejoin="round"/>
<path d="M21.5134 18.5738C25.8423 18.5738 29.3516 15.0646 29.3516 10.7357C29.3516 6.40674 25.8423 2.89746 21.5134 2.89746C17.1845 2.89746 13.6752 6.40674 13.6752 10.7357C13.6752 15.0646 17.1845 18.5738 21.5134 18.5738Z" stroke="#093030" stroke-width="3.86118" stroke-linecap="round" stroke-linejoin="round"/>
</svg>
