<svg width="51" height="44" viewBox="0 0 51 44" fill="none" xmlns="http://www.w3.org/2000/svg">
<g clip-path="url(#clip0_7175_5841)">
<path d="M20.8999 31.59H30.8999C31.8194 31.5874 32.7004 31.221 33.3506 30.5708C34.0008 29.9206 34.3672 29.0396 34.3699 28.1201C34.3646 27.2023 33.9971 26.3238 33.3472 25.6758C32.6973 25.0278 31.8177 24.6627 30.8999 24.66H24.5598C23.1371 24.6432 21.7249 24.4141 20.3699 23.9801C17.8599 23.4401 13.7999 23.4101 11.9399 28.1201H7.93994M34.3198 28.12L43.3198 22.82C44.1053 22.3442 45.0475 22.1991 45.9397 22.4165C46.8319 22.6339 47.6014 23.1962 48.0798 23.98C48.5539 24.7649 48.6992 25.7052 48.4839 26.5965C48.2685 27.4879 47.7101 28.2582 46.9299 28.74L35.1599 37.6C33.0616 39.1792 30.5061 40.0322 27.8799 40.03H7.87988M30.98 12.4301L28.5298 14.8901C28.5149 14.9055 28.4971 14.9178 28.4773 14.9262C28.4575 14.9345 28.4363 14.9388 28.4148 14.9388C28.3933 14.9388 28.3723 14.9345 28.3525 14.9262C28.3328 14.9178 28.3147 14.9055 28.2998 14.8901L26.7898 12.42H20.1899C19.6096 13.9302 18.5848 15.2289 17.2512 16.1447C15.9176 17.0606 14.3378 17.5506 12.72 17.5501C10.5982 17.5501 8.56328 16.7072 7.06299 15.2069C5.5627 13.7066 4.71997 11.6718 4.71997 9.55005C4.71997 7.42832 5.5627 5.39348 7.06299 3.89319C8.56328 2.3929 10.5982 1.55005 12.72 1.55005C14.3366 1.54876 15.9155 2.03732 17.249 2.9513C18.5825 3.86528 19.6079 5.16179 20.1899 6.67005H34.8999L38.6599 9.86005L33.6599 15.03L30.98 12.48M7.8999 26.35C7.8999 26.2068 7.84297 26.0695 7.7417 25.9682C7.64043 25.8669 7.50308 25.8101 7.35986 25.8101H2.08984C1.94663 25.8101 1.80928 25.8669 1.70801 25.9682C1.60674 26.0695 1.5498 26.2068 1.5498 26.35V41.78C1.5498 41.9232 1.60674 42.0606 1.70801 42.1619C1.80928 42.2631 1.94663 42.3201 2.08984 42.3201H7.35986C7.50308 42.3201 7.64043 42.2631 7.7417 42.1619C7.84297 42.0606 7.8999 41.9232 7.8999 41.78V26.35Z" stroke="#052224" stroke-width="3" stroke-linecap="round" stroke-linejoin="round"/>
<path d="M10.5702 11.1999C11.7631 11.1999 12.7302 10.2328 12.7302 9.03988C12.7302 7.84695 11.7631 6.87988 10.5702 6.87988C9.37722 6.87988 8.41016 7.84695 8.41016 9.03988C8.41016 10.2328 9.37722 11.1999 10.5702 11.1999Z" fill="#052224"/>
</g>
<defs>
<clipPath id="clip0_7175_5841">
<rect width="50.09" height="43.82" fill="white"/>
</clipPath>
</defs>
</svg>
