<svg width="57" height="53" viewBox="0 0 57 53" fill="none" xmlns="http://www.w3.org/2000/svg">
<path d="M37.9169 25.384L22.5446 35.2496C22.2525 35.4371 21.8799 35.4451 21.58 35.2704L2.30635 24.0447C1.70917 23.6969 1.69079 22.8408 2.27249 22.4676L33.7056 2.30515C33.9976 2.11783 34.3699 2.10978 34.6698 2.28429L53.9431 13.5012C54.5405 13.8488 54.5591 14.7051 53.9774 15.0784L44.9024 20.9012M37.9262 33.2195L22.5444 43.0854C22.2524 43.2727 21.8801 43.2808 21.5802 43.1063L2.3061 31.8889C1.70893 31.5414 1.69012 30.6854 2.27145 30.312L7.40652 27.0133M48.8435 18.3773L53.9427 21.3456C54.5401 21.6934 54.5585 22.5499 53.9764 22.923L44.8184 28.7932M49.217 25.9679L54.0039 28.9345C54.5819 29.2927 54.5885 30.1312 54.0162 30.4984L22.5446 50.6946C22.2525 50.882 21.88 50.8901 21.58 50.7154L2.30634 39.4897C1.70916 39.1419 1.69078 38.2857 2.27248 37.9126L7.21041 34.7451M24.2479 8.97115L44.359 20.6809C44.6434 20.8464 44.8184 21.1507 44.8184 21.4798V35.8882C44.8184 36.203 44.6583 36.4961 44.3935 36.6661L39.3504 39.9049C38.7351 40.3001 37.9262 39.8583 37.9262 39.127V25.9153C37.9262 25.5863 37.7514 25.2821 37.4672 25.1165L18.172 13.8733C17.5751 13.5255 17.5566 12.6699 18.1379 12.2966L23.2831 8.9922C23.5752 8.80458 23.9478 8.79645 24.2479 8.97115Z" stroke="#052224" stroke-width="3.69811" stroke-linecap="round" stroke-linejoin="round"/>
</svg>
